<?xml version="1.0" encoding="utf-8"?>
<!-- Generator: Adobe Illustrator 23.0.1, SVG Export Plug-In . SVG Version: 6.00 Build 0)  -->
<svg version="1.1" id="Calque_1" xmlns="http://www.w3.org/2000/svg" xmlns:xlink="http://www.w3.org/1999/xlink" x="0px" y="0px"
	 width="159.53px" height="140px" viewBox="0 0 159.53 140" enable-background="new 0 0 159.53 140" xml:space="preserve">
<path fill="#468C8B" d="M152.7,140c-0.01-3.55-0.02-7.11-0.02-10.66c0-6.4,0-12.8,0-19.21c0-0.32,0-0.65,0-1.06
	c-0.3-0.02-0.56-0.06-0.81-0.06c-12.67-0.06-25.34-0.11-38-0.17c-3.01-0.01-6.02-0.06-9.03-0.05c-0.63,0-0.88-0.23-1.09-0.79
	c-3.13-8.54-6.29-17.08-9.44-25.61c-0.09-0.25-0.19-0.5-0.32-0.86c-0.93,0.32-1.85,0.61-2.75,0.94
	c-14.43,5.31-28.86,10.63-43.3,15.93c-1.6,0.59-3.22,1.15-4.87,1.54c-1.14,0.27-2.36,0.27-3.54,0.27c-1.4,0.01-2.44-0.74-3.06-1.95
	c-0.86-1.66-1.75-3.31-2.41-5.05c-3.25-8.53-6.47-17.07-9.61-25.63c-2.48-6.76-4.84-13.57-7.21-20.37c-0.8-2.3,0.58-5.34,2.84-6.21
	c8.52-3.27,17.03-6.55,25.59-9.72c24.43-9.04,48.87-18.04,73.31-27.05c3.48-1.28,6.96-2.57,10.44-3.85
	c0.43-0.16,0.88-0.26,1.32-0.39c0.11,0,0.22,0,0.33,0c0.13,0.04,0.25,0.1,0.39,0.11c2.79,0.23,4.57,1.72,5.54,4.31
	c1.29,3.45,2.68,6.86,3.94,10.32c4.62,12.73,9.17,25.48,13.83,38.19c0.63,1.72,0.32,3.13-0.47,4.63c-0.74,1.43-1.93,2.15-3.39,2.69
	c-15.84,5.88-31.67,11.8-47.5,17.71c-0.98,0.37-1.96,0.75-2.99,1.14c0.16,0.51,0.29,0.94,0.45,1.37c2.52,6.89,5.05,13.78,7.54,20.68
	c0.21,0.59,0.48,0.76,1.09,0.76c14.11,0.05,28.21,0.12,42.32,0.18c0.26,0,0.53,0,0.89,0c0-7.91,0-15.73,0-23.65c2.35,0,4.6,0,6.84,0
	c0,20.51,0,41.02,0,61.53C157.26,140,154.98,140,152.7,140z M29.27,61.06c0.49-0.15,0.8-0.23,1.1-0.34c4.67-1.66,9.35-3.29,14-4.99
	c27.44-10.05,54.87-20.11,82.3-30.19c3.99-1.47,7.95-3.01,11.94-4.5c0.52-0.19,0.86-0.39,0.62-1.05c-0.58-1.55-1.09-3.12-1.69-4.65
	c-0.09-0.22-0.55-0.44-0.82-0.41c-0.67,0.07-1.34,0.23-1.97,0.46c-6.92,2.44-13.86,4.83-20.74,7.36
	C92.42,30.7,70.86,38.69,49.3,46.68c-7.01,2.6-14,5.25-21.01,7.84c-0.79,0.29-1.03,0.73-0.78,1.48
	C28.07,57.65,28.66,59.31,29.27,61.06z"/>
<path fill="#468C8B" d="M0,68.21c0.57-1.27,1.63-2.03,2.85-2.51c3.71-1.44,7.42-2.85,11.17-4.19c1.58-0.56,3.85,0.7,4.54,2.33
	c0.53,1.26,0.53,1.26,1.85,0.84c1.13-0.36,1.16-0.36,1.59,0.76c2.29,5.96,4.57,11.93,6.87,17.97c-0.41,0.21-0.77,0.39-1.12,0.57
	c-1.13,0.57-1.26,0.82-1.13,2.04c0.04,0.43,0.06,0.87,0.1,1.3c0.12,1.27-0.41,2.24-1.48,2.85c-1.03,0.59-2.09,1.15-3.2,1.56
	c-3.04,1.13-6.1,2.24-9.19,3.21c-2.18,0.69-3.39,0.13-4.23-1.97c-1.85-4.62-3.63-9.28-5.33-13.96C2.1,75.78,1.09,72.47,0,69.19
	C0,68.86,0,68.53,0,68.21z"/>
</svg>
