<?xml version="1.0" encoding="utf-8"?>
<!-- Generator: Adobe Illustrator 23.0.1, SVG Export Plug-In . SVG Version: 6.00 Build 0)  -->
<svg version="1.1" id="Calque_1" xmlns="http://www.w3.org/2000/svg" xmlns:xlink="http://www.w3.org/1999/xlink" x="0px" y="0px"
	 width="159.53px" height="140px" viewBox="0 0 159.53 140" enable-background="new 0 0 159.53 140" xml:space="preserve">
<path fill="#468C8B" d="M0,140c0-20.51,0-41.02,0-61.53c2.25,0,4.49,0,6.84,0c0,7.92,0,15.74,0,23.65c0.37,0,0.63,0,0.89,0
	c14.11-0.07,28.21-0.14,42.32-0.18c0.61,0,0.88-0.18,1.09-0.76c2.5-6.9,5.03-13.79,7.54-20.68c0.16-0.43,0.28-0.86,0.45-1.37
	c-1.03-0.39-2.01-0.78-2.99-1.14c-15.83-5.91-31.66-11.83-47.5-17.71C7.19,59.72,6,59,5.26,57.57c-0.78-1.5-1.1-2.91-0.47-4.63
	C9.45,40.23,14,27.48,18.62,14.75c1.26-3.46,2.65-6.87,3.94-10.32c0.97-2.59,2.75-4.09,5.54-4.31C28.23,0.1,28.36,0.04,28.49,0
	c0.11,0,0.22,0,0.33,0c0.44,0.13,0.89,0.23,1.32,0.39c3.48,1.28,6.96,2.56,10.44,3.85c24.44,9.01,48.88,18.01,73.31,27.05
	c8.56,3.17,17.07,6.45,25.59,9.72c2.26,0.87,3.64,3.91,2.84,6.21c-2.37,6.8-4.73,13.61-7.21,20.37c-3.14,8.57-6.36,17.11-9.61,25.63
	c-0.66,1.74-1.56,3.39-2.41,5.05c-0.63,1.21-1.66,1.96-3.06,1.95c-1.18-0.01-2.4-0.01-3.54-0.27c-1.65-0.39-3.28-0.95-4.87-1.54
	c-14.44-5.3-28.87-10.62-43.3-15.93c-0.9-0.33-1.82-0.62-2.75-0.94c-0.13,0.36-0.23,0.61-0.32,0.86c-3.15,8.54-6.3,17.07-9.44,25.61
	c-0.21,0.56-0.46,0.79-1.09,0.79c-3.01-0.01-6.02,0.04-9.03,0.05c-12.67,0.06-25.34,0.11-38,0.17c-0.26,0-0.51,0.04-0.81,0.06
	c0,0.41,0,0.73,0,1.06c0,6.4,0,12.8,0,19.21c0,3.55-0.01,7.11-0.02,10.66C4.56,140,2.28,140,0,140z M132.02,55.99
	c0.25-0.74,0.01-1.18-0.78-1.48c-7.01-2.59-14-5.24-21.01-7.84c-21.56-7.98-43.12-15.97-64.7-23.91
	c-6.89-2.53-13.82-4.92-20.74-7.36c-0.63-0.22-1.31-0.38-1.97-0.46c-0.26-0.03-0.73,0.19-0.82,0.41c-0.6,1.53-1.12,3.1-1.69,4.65
	c-0.24,0.65,0.1,0.85,0.62,1.05c3.98,1.49,7.94,3.04,11.94,4.5c27.43,10.07,54.86,20.14,82.3,30.19c4.65,1.7,9.33,3.33,14,4.99
	c0.3,0.11,0.61,0.19,1.1,0.34C130.88,59.31,131.46,57.65,132.02,55.99z"/>
<path fill="#468C8B" d="M159.53,68.21c-0.57-1.27-1.63-2.03-2.85-2.51c-3.71-1.44-7.42-2.85-11.17-4.19
	c-1.58-0.56-3.85,0.7-4.54,2.33c-0.53,1.26-0.53,1.26-1.85,0.84c-1.13-0.36-1.16-0.36-1.59,0.76c-2.29,5.96-4.57,11.93-6.87,17.97
	c0.41,0.21,0.77,0.39,1.12,0.57c1.13,0.57,1.26,0.82,1.13,2.04c-0.04,0.43-0.06,0.87-0.1,1.3c-0.12,1.27,0.41,2.24,1.48,2.85
	c1.03,0.59,2.09,1.15,3.2,1.56c3.04,1.13,6.1,2.24,9.19,3.21c2.18,0.69,3.39,0.13,4.23-1.97c1.85-4.62,3.63-9.28,5.33-13.96
	c1.18-3.25,2.2-6.56,3.29-9.84C159.53,68.86,159.53,68.53,159.53,68.21z"/>
</svg>
