<?xml version="1.0" encoding="utf-8"?>
<!-- Generator: Adobe Illustrator 23.0.1, SVG Export Plug-In . SVG Version: 6.00 Build 0)  -->
<svg version="1.1" id="Calque_1" xmlns="http://www.w3.org/2000/svg" xmlns:xlink="http://www.w3.org/1999/xlink" x="0px" y="0px"
	 width="159.53px" height="140px" viewBox="0 0 159.53 140" enable-background="new 0 0 159.53 140" xml:space="preserve">
<path fill="#468C8B" d="M159.53,0c0,20.51,0,41.02,0,61.53c-2.25,0-4.49,0-6.84,0c0-7.92,0-15.74,0-23.65c-0.37,0-0.63,0-0.89,0
	c-14.11,0.07-28.21,0.14-42.32,0.18c-0.61,0-0.88,0.18-1.09,0.76c-2.5,6.9-5.03,13.79-7.54,20.68c-0.16,0.43-0.28,0.86-0.45,1.37
	c1.03,0.39,2.01,0.78,2.99,1.14c15.83,5.91,31.66,11.83,47.5,17.71c1.46,0.54,2.65,1.26,3.39,2.69c0.78,1.5,1.1,2.91,0.47,4.63
	c-4.65,12.71-9.21,25.46-13.83,38.19c-1.26,3.46-2.65,6.87-3.94,10.32c-0.97,2.59-2.75,4.09-5.54,4.31
	c-0.13,0.01-0.26,0.07-0.39,0.11c-0.11,0-0.22,0-0.33,0c-0.44-0.13-0.89-0.23-1.32-0.39c-3.48-1.28-6.96-2.56-10.44-3.85
	c-24.44-9.01-48.88-18.01-73.31-27.05c-8.56-3.17-17.07-6.45-25.59-9.72c-2.26-0.87-3.64-3.91-2.84-6.21
	c2.37-6.8,4.73-13.61,7.21-20.37c3.14-8.57,6.36-17.11,9.61-25.63c0.66-1.74,1.56-3.39,2.41-5.05c0.63-1.21,1.66-1.96,3.06-1.95
	c1.18,0.01,2.4,0.01,3.54,0.27c1.65,0.39,3.28,0.95,4.87,1.54c14.44,5.3,28.87,10.62,43.3,15.93c0.9,0.33,1.82,0.62,2.75,0.94
	c0.13-0.36,0.23-0.61,0.32-0.86c3.15-8.54,6.3-17.07,9.44-25.61c0.21-0.56,0.46-0.79,1.09-0.79c3.01,0.01,6.02-0.04,9.03-0.05
	c12.67-0.06,25.34-0.11,38-0.17c0.26,0,0.51-0.04,0.81-0.06c0-0.41,0-0.73,0-1.06c0-6.4,0-12.8,0-19.21c0-3.55,0.01-7.11,0.02-10.66
	C154.98,0,157.26,0,159.53,0z M27.51,84.01c-0.25,0.74-0.01,1.18,0.78,1.48c7.01,2.59,14,5.24,21.01,7.84
	c21.56,7.98,43.12,15.97,64.7,23.91c6.89,2.53,13.82,4.92,20.74,7.36c0.63,0.22,1.31,0.38,1.97,0.46c0.26,0.03,0.73-0.19,0.82-0.41
	c0.6-1.53,1.12-3.1,1.69-4.65c0.24-0.65-0.1-0.85-0.62-1.05c-3.98-1.49-7.94-3.04-11.94-4.5c-27.43-10.07-54.86-20.14-82.3-30.19
	c-4.65-1.7-9.33-3.33-14-4.99c-0.3-0.11-0.61-0.19-1.1-0.34C28.66,80.69,28.07,82.35,27.51,84.01z"/>
<path fill="#468C8B" d="M0,71.79c0.57,1.27,1.63,2.03,2.85,2.51c3.71,1.44,7.42,2.85,11.17,4.19c1.58,0.56,3.85-0.7,4.54-2.33
	c0.53-1.26,0.53-1.26,1.85-0.84c1.13,0.36,1.16,0.36,1.59-0.76c2.29-5.96,4.57-11.93,6.87-17.97c-0.41-0.21-0.77-0.39-1.12-0.57
	c-1.13-0.57-1.26-0.82-1.13-2.04c0.04-0.43,0.06-0.87,0.1-1.3c0.12-1.27-0.41-2.24-1.48-2.85c-1.03-0.59-2.09-1.15-3.2-1.56
	c-3.04-1.13-6.1-2.24-9.19-3.21c-2.18-0.69-3.39-0.13-4.23,1.97c-1.85,4.62-3.63,9.28-5.33,13.96C2.1,64.22,1.09,67.53,0,70.81
	C0,71.14,0,71.47,0,71.79z"/>
</svg>
